<svg width="41" height="21" fill="none" xmlns="http://www.w3.org/2000/svg"><path fill-rule="evenodd" clip-rule="evenodd" d="M29.72 8.048c.799.275 1.645.37 2.455.275a5.02 5.02 0 001.018-.222c2.22 1.308 4.708 2.123 7.807 1.723 0 0-6.29 11.22-17.16 11.176-2.895-.015-5.282-.83-7.338-2.02a20.591 20.591 0 01-2.596-1.805c-1.26-1.01-2.39-2.11-3.458-3.147-.486-.473-.96-.933-1.425-1.366a4.848 4.848 0 00-5.206-.906 10.87 10.87 0 00-3.075 1.98.615.615 0 01-.458.166A11.49 11.49 0 010 12.662c1.735-1.86 5.08-5.154 12.908-5.502.918-.04 1.772-.011 2.567.072 1.613.167 3 .562 4.256 1.066 1.304.523 2.467 1.162 3.601 1.786 2.922 1.607 5.653 3.108 10.107 2.241 0 0-4.227.32-12.303-5.408a12.432 12.432 0 00-2.197-1.244 12.767 12.767 0 00-4.533-1.055c-3.698-.192-6.7 1.094-7.154 1.289l-.058.024s0-.002.002-.003c.068-.1 1.663-2.446 4.747-4.152A14.126 14.126 0 0114.82.57 14.222 14.222 0 0118.896 0c1.884.008 3.532.551 5.062 1.38l.533.947c.281.5 2.809 4.894 5.228 5.72z" fill="url(#paint0_linear_219_2)"/><path d="M32.265.53c2.12.724 3.345 2.78 2.733 4.589-.612 1.809-2.827 2.686-4.947 1.957-2.121-.725-4.67-5.252-4.67-5.252S30.144-.2 32.265.529z" fill="url(#paint1_linear_219_2)"/><path d="M32.182 1.098a2.4 2.4 0 00-.353-.087c1.624.881 2.484 2.625 1.959 4.18a2.97 2.97 0 01-.59 1.008c.554-.308.986-.783 1.191-1.392.493-1.461-.493-3.121-2.207-3.709z" fill="#fff"/><defs><linearGradient id="paint0_linear_219_2" x1="10.967" y1=".79" x2="38.252" y2="31.601" gradientUnits="userSpaceOnUse"><stop stop-color="#C1D239"/><stop offset=".303" stop-color="#95C11F"/><stop offset=".692" stop-color="#008D36"/></linearGradient><linearGradient id="paint1_linear_219_2" x1="28.151" y1="1.716" x2="35.795" y2="7.474" gradientUnits="userSpaceOnUse"><stop stop-color="#AFDFF9"/><stop offset=".734" stop-color="#0C98D6"/></linearGradient></defs></svg>